<svg width="381" height="800" viewBox="0 0 381 800" fill="none" xmlns="http://www.w3.org/2000/svg">
<g clip-path="url(#clip0_106_415)">
<path d="M113.69 796.083C111.505 798.268 109.184 799.36 106.726 799.36C103.996 799.36 102.63 797.721 102.63 794.445C102.63 790.895 105.907 783.659 112.461 772.736C129.118 746.794 145.365 733.824 161.203 733.824C171.853 733.824 177.178 738.876 177.178 748.979C177.178 754.713 172.535 759.492 163.251 763.315C144.41 770.961 127.889 781.884 113.69 796.083ZM21.9392 767.411C20.0278 769.323 17.7067 770.415 14.976 770.688C12.2454 770.688 10.88 769.049 10.88 765.773C10.88 762.223 14.1568 754.986 20.7104 744.064C37.3674 718.122 53.6151 705.152 69.4528 705.152C80.1024 705.152 85.4272 710.204 85.4272 720.307C85.4272 726.041 80.785 730.82 71.5008 734.643C52.6592 742.289 36.1386 753.212 21.9392 767.411ZM313.984 734.643L344.704 728.089C364.637 728.089 374.605 735.735 374.605 751.027V754.304C374.605 761.95 370.371 765.773 361.907 765.773C360.269 765.773 353.306 764.953 341.018 763.315C328.73 761.404 315.759 760.448 302.106 760.448C290.091 767.274 280.124 776.013 272.205 786.662C267.836 788.847 263.603 790.895 259.507 792.806C262.238 783.795 263.603 777.515 263.603 773.965C263.603 766.319 260.599 760.448 254.592 756.352C233.839 738.057 192.606 719.625 130.893 701.056C127.889 700.237 125.705 698.871 124.339 696.96C122.701 694.775 121.882 693.001 121.882 691.635C121.609 690.27 122.155 688.768 123.52 687.129C124.612 685.491 126.524 684.672 129.254 684.672C227.285 717.986 288.862 734.643 313.984 734.643ZM47.3344 589.645V519.603H22.3488L4.32645 521.651H3.91682C2.27843 521.651 1.45923 520.559 1.45923 518.374C1.45923 515.917 2.41497 507.998 4.32645 494.617C6.2379 481.237 8.2859 474.547 10.4704 474.547L23.5776 486.835H47.3344V463.488C41.873 459.664 34.0906 452.701 23.9872 442.598C40.0983 423.757 49.9287 414.336 53.4784 414.336C57.0282 414.336 58.9399 415.974 59.2128 419.251V486.835L85.8368 484.377C91.2983 485.197 94.0288 494.89 94.0288 513.459C94.0288 518.101 90.8887 520.832 84.608 521.651L59.2128 519.603V589.645L85.8368 587.187C91.2983 588.006 94.0288 597.7 94.0288 616.269C94.0288 620.911 90.8887 623.641 84.608 624.461L59.2128 622.413L59.2128 649.037C59.2128 658.594 60.4416 668.561 62.8992 678.937L42.8288 695.321C45.8327 682.487 47.3344 669.79 47.3344 657.229L47.3344 622.413H22.3488L4.32645 624.461H3.91682C2.27843 624.461 1.45923 623.369 1.45923 621.184C1.45923 618.726 2.41497 610.807 4.32645 597.427C6.2379 584.047 8.2859 577.357 10.4704 577.357L23.5776 589.645H47.3344ZM131.712 470.041C127.889 470.041 124.885 470.861 122.701 472.499V538.035C136.9 537.762 151.236 537.625 165.709 537.625V470.041H131.712ZM218.547 536.806V486.016L193.562 460.211C209.673 439.184 219.913 428.672 224.282 428.672C226.739 428.672 227.968 431.677 227.968 437.683V536.806C238.891 537.079 249.267 538.581 259.098 541.312C261.282 539.946 263.603 538.581 266.061 537.216V465.536L241.075 439.731C258.825 418.704 269.065 408.192 271.795 408.192C274.253 408.192 275.482 411.197 275.482 417.203V531.072C310.707 505.95 333.917 464.989 345.114 408.192C355.491 416.656 367.232 423.894 380.339 429.901C362.317 486.153 328.048 525.337 277.53 547.456C320.947 566.844 353.168 611.626 374.195 681.805C375.286 685.354 375.834 688.768 375.834 692.045C375.834 695.049 375.014 697.506 373.376 699.417C372.01 701.056 370.646 701.875 369.28 701.875C368.189 701.875 366.822 701.329 365.184 700.237C344.976 637.431 315.076 597.564 275.482 580.633V660.096C276.028 668.015 277.257 674.569 279.168 679.757C280.806 684.672 281.626 687.402 281.626 687.949L264.832 707.2H263.603C263.057 707.2 262.374 706.654 261.555 705.561C264.559 689.997 266.061 672.384 266.061 652.723V576.947C254.046 573.124 241.348 571.213 227.968 571.213V640.025C228.514 647.945 229.743 654.498 231.654 659.686C233.293 664.601 234.112 667.332 234.112 667.878L217.318 687.129H216.09C215.543 687.129 214.861 686.583 214.042 685.491C217.045 669.926 218.547 652.313 218.547 632.653V571.213H175.949V639.206C181.41 638.114 184.96 637.568 186.598 637.568C192.06 638.387 194.79 648.354 194.79 667.469C194.79 672.657 191.377 675.251 184.55 675.251L150.963 672.793H118.605L98.1248 675.661H96.4864C95.9402 675.661 95.6672 674.978 95.6672 673.613C95.6672 672.247 97.9882 665.967 102.63 654.771C107.273 643.575 110.276 635.929 111.642 631.833V481.92L89.9328 456.934C106.863 433.449 117.922 421.846 123.11 422.118L141.133 437.273H156.288L183.731 434.816C189.193 435.635 191.923 445.328 191.923 463.897C191.923 468.541 188.237 470.861 180.864 470.861C179.499 470.861 177.86 470.723 175.949 470.451V537.216L218.547 536.806ZM122.701 571.213V640.025H165.709V571.213H122.701ZM68.6336 318.899C84.1984 319.99 96.4864 323.542 105.498 329.549C114.509 335.555 119.014 343.203 119.014 352.486C119.014 363.408 113.007 368.87 100.992 368.87C93.3463 368.87 82.9697 361.769 69.8624 347.571C66.0394 343.475 53.0688 338.15 30.9504 331.597C28.2198 330.777 26.8544 329.549 26.8544 327.91C26.5814 326.272 26.4448 325.043 26.4448 324.224C26.4448 320.4 30.9504 318.217 39.9616 317.67L56.7552 316.851L57.1648 211.584H23.9872L5.55522 213.632C3.64376 213.904 2.68803 212.95 2.68803 210.765C2.68803 181.273 5.8283 166.528 12.1088 166.528C13.4742 166.528 15.3856 168.576 17.8432 172.672C20.0278 176.768 22.4854 178.816 25.216 178.816H57.1648L56.7552 65.7663L32.1792 42.0095C48.8362 15.7951 60.7146 2.68787 67.8144 2.68787C69.4528 2.68787 70.272 5.41748 70.272 10.8799L114.099 68.2239C117.103 71.5007 117.103 75.0495 114.099 78.8735L68.6336 67.4047L68.6336 318.899ZM131.712 136.627V258.688C131.985 266.88 133.077 273.296 134.989 277.939C136.9 282.582 137.993 285.45 138.266 286.541C138.266 287.632 137.719 288.726 136.627 289.817L120.653 307.021C119.014 307.568 117.786 306.749 116.966 304.563C119.697 288.726 121.199 266.061 121.472 236.569C121.472 207.078 121.472 173.081 121.472 134.579C109.457 119.833 103.45 111.094 103.45 108.365V107.955C120.38 89.9327 132.395 80.9215 139.494 80.9215C154.513 103.587 169.941 131.984 185.779 166.118C186.871 162.57 188.1 160.794 189.466 160.794C190.831 160.794 192.742 162.979 195.2 167.347C197.658 171.443 200.252 173.491 202.982 173.491H229.606L229.606 73.5487C229.606 71.9103 227.149 68.4959 222.234 63.3087C217.045 57.8463 213.359 54.2975 211.174 52.6591C208.717 51.0207 207.488 48.7007 207.488 45.6959C207.488 42.4191 208.444 39.6895 210.355 37.5039C228.651 15.6575 237.935 4.7359 238.208 4.7359C239.573 4.7359 240.256 7.87506 240.256 14.1567L240.256 173.491H345.933C352.214 173.491 358.63 176.221 365.184 181.683C372.01 187.146 375.424 192.47 375.424 197.658C375.424 202.573 374.195 206.397 371.738 209.126C352.896 228.787 343.066 251.862 342.246 278.349C341.155 282.173 339.517 284.083 337.331 284.083C335.146 284.083 333.645 282.307 332.826 278.758L339.789 205.44L332.826 202.573H240.256V337.331C240.802 345.523 242.031 352.214 243.942 357.401C245.581 362.317 246.263 365.046 245.99 365.593C237.525 377.062 231.381 383.753 227.558 385.664C225.92 385.664 225.101 384.982 225.101 383.616C227.831 367.779 229.333 348.662 229.606 326.272V202.573H201.754C197.658 202.573 193.562 202.982 189.466 203.802C185.097 204.621 182.502 204.893 181.683 204.621C180.591 204.073 180.045 202.845 180.045 200.934C180.045 199.024 180.727 194.381 182.093 187.008C167.893 164.342 151.1 147.549 131.712 136.627Z" fill="#313131"/>
</g>
<defs>
<clipPath id="clip0_106_415">
<rect width="800" height="380.8" fill="white" transform="translate(0 800) rotate(-90)"/>
</clipPath>
</defs>
</svg>
