<svg width="564" height="1080" viewBox="0 0 564 1080" fill="none" xmlns="http://www.w3.org/2000/svg">
<g clip-path="url(#clip0_106_478)">
<path d="M310.2 521.212L308.111 603.337L388.533 586.912L310.2 521.212Z" fill="#462113" stroke="#462113" stroke-linejoin="bevel"/>
<path d="M308.111 603.338L324.822 651.375L388.533 586.913L308.111 603.338Z" fill="#FF7D39" stroke="#FF7D39" stroke-linejoin="bevel"/>
<path d="M388.533 586.913L404.2 468L310.2 521.212L388.533 586.913Z" fill="#5B2C18" stroke="#5B2C18" stroke-linejoin="bevel"/>
<path d="M404.2 468L325.867 424.913L310.2 521.213L404.2 468Z" fill="#FF7D39" stroke="#FF7D39" stroke-linejoin="bevel"/>
<path d="M542.067 621L512.822 563.288L388.533 586.913L542.067 621Z" fill="#71361D" stroke="#71361D" stroke-linejoin="bevel"/>
<path d="M388.533 586.913L512.822 563.288L404.2 468L388.533 586.913Z" fill="#5B2C18" stroke="#5B2C18" stroke-linejoin="bevel"/>
<path d="M552.511 651.713L542.067 621L388.533 586.913L552.511 651.713Z" fill="#B6582C" stroke="#B6582C" stroke-linejoin="bevel"/>
<path d="M102.356 370.125L132.644 627.75L310.2 521.212L102.356 370.125Z" fill="#462113" stroke="#462113" stroke-linejoin="bevel"/>
<path d="M310.2 521.212L132.644 627.75L308.111 603.337L310.2 521.212Z" fill="#E67035" stroke="#E67035" stroke-linejoin="bevel"/>
<path d="M308.111 603.337L132.644 627.75L324.822 651.375L308.111 603.337Z" fill="#874122" stroke="#874122" stroke-linejoin="bevel"/>
<path d="M542.067 621L564 540.337L512.822 563.287L542.067 621Z" fill="#5B2C18" stroke="#5B2C18" stroke-linejoin="bevel"/>
<path d="M512.822 563.288L564 455.288L404.2 468L512.822 563.288Z" fill="#5B2C18" stroke="#5B2C18" stroke-linejoin="bevel"/>
<path d="M404.2 468L377.044 263.25L325.867 424.913L404.2 468Z" fill="#9E4C27" stroke="#9E4C27" stroke-linejoin="bevel"/>
<path d="M533.711 801.788L552.511 651.713L388.533 586.913L533.711 801.788Z" fill="#E67035" stroke="#E67035" stroke-linejoin="bevel"/>
<path d="M542.067 621L552.511 651.712L564 540.337L542.067 621Z" fill="#CE6430" stroke="#CE6430" stroke-linejoin="bevel"/>
<path d="M564 540.338V455.288L512.822 563.288L564 540.338Z" fill="#874122" stroke="#874122" stroke-linejoin="bevel"/>
<path d="M194.267 816.413L271.556 831.038L324.822 651.375L194.267 816.413Z" fill="#874122" stroke="#874122" stroke-linejoin="bevel"/>
<path d="M533.711 801.787L564 761.287L552.511 651.712L533.711 801.787Z" fill="#874122" stroke="#874122" stroke-linejoin="bevel"/>
<path d="M132.644 627.75L141 758.25L324.822 651.375L132.644 627.75Z" fill="#462113" stroke="#462113" stroke-linejoin="bevel"/>
<path d="M141 758.25L194.267 816.413L324.822 651.375L141 758.25Z" fill="#462113" stroke="#462113" stroke-linejoin="bevel"/>
<path d="M564 255.375L377.044 263.25L404.2 468L564 255.375Z" fill="#874122" stroke="#874122" stroke-linejoin="bevel"/>
<path d="M325.867 424.913L102.356 370.125L310.2 521.212L325.867 424.913Z" fill="#B6582C" stroke="#B6582C" stroke-linejoin="bevel"/>
<path d="M377.044 263.25L249.622 274.838L325.867 424.913L377.044 263.25Z" fill="#5B2C18" stroke="#5B2C18" stroke-linejoin="bevel"/>
<path d="M533.711 801.788L388.533 586.913L324.822 651.375L533.711 801.788Z" fill="#CE6430" stroke="#CE6430" stroke-linejoin="bevel"/>
<path d="M552.511 651.712L564 761.287V540.337L552.511 651.712Z" fill="#9E4C27" stroke="#9E4C27" stroke-linejoin="bevel"/>
<path d="M390.622 892.462L533.711 801.788L324.822 651.375L390.622 892.462Z" fill="#FF7D39" stroke="#FF7D39" stroke-linejoin="bevel"/>
<path d="M249.622 274.837L102.356 370.125L325.867 424.912L249.622 274.837Z" fill="#E67035" stroke="#E67035" stroke-linejoin="bevel"/>
<path d="M132.644 627.75L28.2 689.962L141 758.25L132.644 627.75Z" fill="#B6582C" stroke="#B6582C" stroke-linejoin="bevel"/>
<path d="M102.356 370.125L36.5555 541.913L132.644 627.75L102.356 370.125Z" fill="#E67035" stroke="#E67035" stroke-linejoin="bevel"/>
<path d="M377.044 263.25L257.978 244.462L249.622 274.837L377.044 263.25Z" fill="#32180B" stroke="#32180B" stroke-linejoin="bevel"/>
<path d="M249.622 274.838L173.378 266.625L102.356 370.125L249.622 274.838Z" fill="#874122" stroke="#874122" stroke-linejoin="bevel"/>
<path d="M271.556 831.038L390.622 892.462L324.822 651.375L271.556 831.038Z" fill="#9E4C27" stroke="#9E4C27" stroke-linejoin="bevel"/>
<path d="M245.444 1080L390.622 892.463L271.556 831.038L245.444 1080Z" fill="#210D00" stroke="#210D00" stroke-linejoin="bevel"/>
<path d="M257.978 244.462L173.378 266.625L249.622 274.837L257.978 244.462Z" fill="#9E4C27" stroke="#9E4C27" stroke-linejoin="bevel"/>
<path d="M141 758.25L177.556 864.337L194.267 816.413L141 758.25Z" fill="#E67035" stroke="#E67035" stroke-linejoin="bevel"/>
<path d="M194.267 816.413L177.556 864.338L271.556 831.038L194.267 816.413Z" fill="#5B2C18" stroke="#5B2C18" stroke-linejoin="bevel"/>
<path d="M0 831.038L177.556 864.337L141 758.25L0 831.038Z" fill="#210D00" stroke="#210D00" stroke-linejoin="bevel"/>
<path d="M465.822 937.463L564 829.125L533.711 801.788L465.822 937.463Z" fill="#5B2C18" stroke="#5B2C18" stroke-linejoin="bevel"/>
<path d="M533.711 801.788L564 829.125V761.288L533.711 801.788Z" fill="#71361D" stroke="#71361D" stroke-linejoin="bevel"/>
<path d="M173.378 266.625L115.933 301.837L102.356 370.125L173.378 266.625Z" fill="#CE6430" stroke="#CE6430" stroke-linejoin="bevel"/>
<path d="M0 545.963V568.913L36.5556 541.913L0 545.963Z" fill="#CE6430" stroke="#CE6430" stroke-linejoin="bevel"/>
<path d="M36.5556 541.913L28.2 689.963L132.644 627.75L36.5556 541.913Z" fill="#32180B" stroke="#32180B" stroke-linejoin="bevel"/>
<path d="M257.978 244.463L251.711 212.288L173.378 266.625L257.978 244.463Z" fill="#E67035" stroke="#E67035" stroke-linejoin="bevel"/>
<path d="M0 324L102.356 370.125L115.933 301.837L0 324Z" fill="#71361D" stroke="#71361D" stroke-linejoin="bevel"/>
<path d="M377.044 263.25L251.711 212.288L257.978 244.463L377.044 263.25Z" fill="#874122" stroke="#874122" stroke-linejoin="bevel"/>
<path d="M36.5556 541.913L0 568.913L28.2 689.963L36.5556 541.913Z" fill="#E67035" stroke="#E67035" stroke-linejoin="bevel"/>
<path d="M0 545.962L36.5556 541.912L0 334.462V545.962Z" fill="#CE6430" stroke="#CE6430" stroke-linejoin="bevel"/>
<path d="M0 334.462L36.5556 541.912L102.356 370.125L0 334.462Z" fill="#462113" stroke="#462113" stroke-linejoin="bevel"/>
<path d="M564 455.288V255.375L404.2 468L564 455.288Z" fill="#32180B" stroke="#32180B" stroke-linejoin="bevel"/>
<path d="M377.044 263.25L400.022 159.413L251.711 212.288L377.044 263.25Z" fill="#210D00" stroke="#210D00" stroke-linejoin="bevel"/>
<path d="M564 255.375L453.289 161.212L377.044 263.25L564 255.375Z" fill="#462113" stroke="#462113" stroke-linejoin="bevel"/>
<path d="M424.044 1080L465.822 937.462L390.622 892.462L424.044 1080Z" fill="#32180B" stroke="#32180B" stroke-linejoin="bevel"/>
<path d="M390.622 892.463L465.822 937.463L533.711 801.788L390.622 892.463Z" fill="#CE6430" stroke="#CE6430" stroke-linejoin="bevel"/>
<path d="M453.289 161.213L400.022 159.413L377.044 263.25L453.289 161.213Z" fill="#71361D" stroke="#71361D" stroke-linejoin="bevel"/>
<path d="M564 247.837L453.289 161.212L564 255.375V247.837Z" fill="#FF7D39" stroke="#FF7D39" stroke-linejoin="bevel"/>
<path d="M465.822 937.462L564 919.462V829.125L465.822 937.462Z" fill="#E67035" stroke="#E67035" stroke-linejoin="bevel"/>
<path d="M0 324V334.462L102.356 370.125L0 324Z" fill="#FF7D39" stroke="#FF7D39" stroke-linejoin="bevel"/>
<path d="M0 324L115.933 301.838L0 228.038V324Z" fill="#71361D" stroke="#71361D" stroke-linejoin="bevel"/>
<path d="M0 228.038L115.933 301.838L148.311 102.038L0 228.038Z" fill="#874122" stroke="#874122" stroke-linejoin="bevel"/>
<path d="M0 568.913V829.125L28.2 689.963L0 568.913Z" fill="#9E4C27" stroke="#9E4C27" stroke-linejoin="bevel"/>
<path d="M28.2 689.962L0 829.125L141 758.25L28.2 689.962Z" fill="#874122" stroke="#874122" stroke-linejoin="bevel"/>
<path d="M245.444 1080H424.044L390.622 892.462L245.444 1080Z" fill="#32180B" stroke="#32180B" stroke-linejoin="bevel"/>
<path d="M0 829.125V831.038L141 758.25L0 829.125Z" fill="#462113" stroke="#462113" stroke-linejoin="bevel"/>
<path d="M47 934.537L92.9556 953.212L177.556 864.337L47 934.537Z" fill="#5B2C18" stroke="#5B2C18" stroke-linejoin="bevel"/>
<path d="M400.022 159.413L252.756 98.6626L251.711 212.288L400.022 159.413Z" fill="#874122" stroke="#874122" stroke-linejoin="bevel"/>
<path d="M251.711 212.288L148.311 102.038L173.378 266.625L251.711 212.288Z" fill="#9E4C27" stroke="#9E4C27" stroke-linejoin="bevel"/>
<path d="M297.667 0L252.756 98.6625L400.022 159.412L297.667 0Z" fill="#71361D" stroke="#71361D" stroke-linejoin="bevel"/>
<path d="M0 831.038L47 934.538L177.556 864.338L0 831.038Z" fill="#210D00" stroke="#210D00" stroke-linejoin="bevel"/>
<path d="M148.311 102.038L115.933 301.838L173.378 266.625L148.311 102.038Z" fill="#32180B" stroke="#32180B" stroke-linejoin="bevel"/>
<path d="M564 247.838V120.038L453.289 161.213L564 247.838Z" fill="#210D00" stroke="#210D00" stroke-linejoin="bevel"/>
<path d="M502.378 0H297.667L400.022 159.412L502.378 0Z" fill="#E67035" stroke="#E67035" stroke-linejoin="bevel"/>
<path d="M252.756 98.6626L148.311 102.038L251.711 212.288L252.756 98.6626Z" fill="#9E4C27" stroke="#9E4C27" stroke-linejoin="bevel"/>
<path d="M245.444 1080L271.556 831.038L177.556 864.338L245.444 1080Z" fill="#874122" stroke="#874122" stroke-linejoin="bevel"/>
<path d="M465.822 937.462L494.022 1080L564 919.462L465.822 937.462Z" fill="#71361D" stroke="#71361D" stroke-linejoin="bevel"/>
<path d="M198.444 1080L177.556 864.337L92.9556 953.212L198.444 1080Z" fill="#210D00" stroke="#210D00" stroke-linejoin="bevel"/>
<path d="M198.444 1080H245.444L177.556 864.337L198.444 1080Z" fill="#462113" stroke="#462113" stroke-linejoin="bevel"/>
<path d="M0 1080H198.444L92.9556 953.212L0 1080Z" fill="#CE6430" stroke="#CE6430" stroke-linejoin="bevel"/>
<path d="M424.044 1080H494.022L465.822 937.462L424.044 1080Z" fill="#71361D" stroke="#71361D" stroke-linejoin="bevel"/>
<path d="M502.378 0L400.022 159.412L453.289 161.213L502.378 0Z" fill="#9E4C27" stroke="#9E4C27" stroke-linejoin="bevel"/>
<path d="M252.756 98.6625L294.533 0L148.311 102.037L252.756 98.6625Z" fill="#CE6430" stroke="#CE6430" stroke-linejoin="bevel"/>
<path d="M297.667 0H294.533L252.756 98.6625L297.667 0Z" fill="#9E4C27" stroke="#9E4C27" stroke-linejoin="bevel"/>
<path d="M494.022 1080H564V919.462L494.022 1080Z" fill="#32180B" stroke="#32180B" stroke-linejoin="bevel"/>
<path d="M564 120.037L502.378 0L453.289 161.213L564 120.037Z" fill="#FF7D39" stroke="#FF7D39" stroke-linejoin="bevel"/>
<path d="M0 831.038V1038.71L47 934.538L0 831.038Z" fill="#FF7D39" stroke="#FF7D39" stroke-linejoin="bevel"/>
<path d="M47 934.538L0 1038.71L92.9556 953.213L47 934.538Z" fill="#9E4C27" stroke="#9E4C27" stroke-linejoin="bevel"/>
<path d="M564 120.037V0H502.378L564 120.037Z" fill="#5B2C18" stroke="#5B2C18" stroke-linejoin="bevel"/>
<path d="M0 1038.71V1080L92.9556 953.212L0 1038.71Z" fill="#874122" stroke="#874122" stroke-linejoin="bevel"/>
<path d="M294.533 0H38.6445L148.311 102.037L294.533 0Z" fill="#874122" stroke="#874122" stroke-linejoin="bevel"/>
<path d="M148.311 102.037L38.6444 0L0 228.037L148.311 102.037Z" fill="#874122" stroke="#874122" stroke-linejoin="bevel"/>
<path d="M38.6444 0H0V228.037L38.6444 0Z" fill="#B6582C" stroke="#B6582C" stroke-linejoin="bevel"/>
</g>
<defs>
<clipPath id="clip0_106_478">
<rect width="564" height="1080" fill="white"/>
</clipPath>
</defs>
</svg>
